#define book_width 8
#define book_height 8
static unsigned char book_bits[] = {
   0x00, 0xe7, 0xff, 0xff, 0xff, 0xff, 0x18, 0x00 };
