#define dev_width 8
#define dev_height 8
static unsigned char dev_bits[] = {
   0xff, 0x81, 0xa5, 0x99, 0xa5, 0x81, 0xff, 0xff };
