#define screen_width 8
#define screen_height 8
static unsigned char screen_bits[] = {
   0xff, 0x81, 0x81, 0x81, 0x81, 0x81, 0xff, 0xff };
